<svg width="27" height="33" viewBox="0 0 27 33" fill="none" xmlns="http://www.w3.org/2000/svg">
<g clip-path="url(#clip0_105_2535)">
<path d="M13.8626 19.8639C17.3555 19.8639 20.196 17.0234 20.196 13.5306C20.196 10.0378 17.3555 7.19727 13.8626 7.19727C10.3698 7.19727 7.5293 10.0378 7.5293 13.5306C7.5293 17.0234 10.3698 19.8639 13.8626 19.8639ZM13.8626 10.3639C15.609 10.3639 17.0293 11.7842 17.0293 13.5306C17.0293 15.277 15.609 16.6973 13.8626 16.6973C12.1162 16.6973 10.696 15.277 10.696 13.5306C10.696 11.7842 12.1162 10.3639 13.8626 10.3639Z" fill="#EF2779"/>
<path d="M12.7485 32.3722C13.0164 32.5635 13.3375 32.6664 13.6668 32.6664C13.9961 32.6664 14.3172 32.5635 14.5851 32.3722C15.0665 32.0317 26.3794 23.8633 26.3335 13.6667C26.3335 6.68258 20.6509 1 13.6668 1C6.68272 1 1.00014 6.68258 1.00014 13.6587C0.954223 23.8633 12.2671 32.0317 12.7485 32.3722ZM13.6668 4.16667C18.9061 4.16667 23.1668 8.42742 23.1668 13.6746C23.2001 20.7014 16.2191 27.011 13.6668 29.0804C11.1161 27.0094 4.13356 20.6982 4.16681 13.6667C4.16681 8.42742 8.42756 4.16667 13.6668 4.16667Z" fill="#EF2779"/>
</g>
<defs>
<clipPath id="clip0_105_2535">
<rect width="26" height="32" fill="white" transform="translate(0.863281 0.697266)"/>
</clipPath>
</defs>
</svg>
